<?xml version="1.0" standalone="no"?>
<!DOCTYPE svg PUBLIC "-//W3C//DTD SVG 20010904//EN"
 "http://www.w3.org/TR/2001/REC-SVG-20010904/DTD/svg10.dtd">
<svg version="1.0" xmlns="http://www.w3.org/2000/svg"
 width="512.000000pt" height="512.000000pt" viewBox="0 0 512.000000 512.000000"
 preserveAspectRatio="xMidYMid meet">

<g transform="translate(0.000000,512.000000) scale(0.100000,-0.100000)"
fill="#000000" stroke="none">
<path d="M609 3990 c-67 -11 -120 -42 -171 -99 -84 -93 -79 0 -76 -1351 l3
-1195 27 -51 c15 -28 48 -70 73 -92 89 -78 -90 -72 2095 -72 2185 0 2006 -6
2095 72 25 22 58 64 73 92 l27 51 3 1195 c2 1097 1 1199 -15 1249 -22 70 -95
150 -165 182 l-53 24 -1935 1 c-1064 1 -1956 -2 -1981 -6z m3856 -169 c-76
-72 -1738 -1388 -1774 -1405 -65 -29 -197 -29 -262 0 -36 17 -1698 1333 -1774
1405 -19 19 22 19 1905 19 1883 0 1924 0 1905 -19z m-3287 -615 c480 -384 560
-452 549 -465 -6 -8 -274 -329 -594 -713 l-582 -698 -18 27 c-17 26 -18 92
-21 1188 -1 638 0 1166 3 1173 4 10 19 3 53 -25 27 -21 301 -240 610 -487z
m3432 -644 c0 -1082 -1 -1159 -18 -1191 -9 -19 -21 -34 -25 -33 -4 1 -273 320
-598 709 l-590 708 23 17 c13 9 286 228 608 486 322 258 588 467 593 465 4 -2
7 -525 7 -1161z m-2270 -272 c67 -34 136 -50 220 -50 157 0 212 28 483 244
114 91 211 166 216 166 5 0 266 -308 580 -685 l571 -685 -1850 0 -1850 0 575
690 575 690 218 -174 c119 -95 237 -184 262 -196z"/>
</g>
</svg>
