<?xml version="1.0" standalone="no"?>
<!DOCTYPE svg PUBLIC "-//W3C//DTD SVG 20010904//EN"
 "http://www.w3.org/TR/2001/REC-SVG-20010904/DTD/svg10.dtd">
<svg version="1.0" xmlns="http://www.w3.org/2000/svg"
 width="512.000000pt" height="512.000000pt" viewBox="0 0 512.000000 512.000000"
 preserveAspectRatio="xMidYMid meet">

<g transform="translate(0.000000,512.000000) scale(0.100000,-0.100000)"
fill="#000000" stroke="none">
<path d="M2434 4973 c-682 -807 -1079 -1432 -1202 -1893 -34 -130 -36 -345 -4
-497 56 -258 173 -481 352 -667 117 -121 232 -205 380 -277 69 -34 132 -64
140 -69 13 -6 15 -53 18 -314 l2 -306 -250 0 -250 0 50 61 c88 110 143 249
157 395 l6 64 -149 0 -150 0 -10 -68 c-30 -186 -177 -336 -363 -372 -30 -5
-94 -10 -142 -10 l-89 0 0 -360 0 -360 -465 0 -465 0 0 -150 0 -150 2560 0
2560 0 0 150 0 150 -465 0 -465 0 0 360 0 360 -91 0 c-49 0 -121 7 -159 16
-176 40 -312 185 -342 367 l-11 67 -150 0 -149 0 7 -67 c17 -159 87 -321 183
-425 l26 -28 -252 0 -252 0 0 304 0 305 133 64 c166 80 280 162 399 285 187
193 304 412 360 675 33 156 31 367 -6 501 -109 404 -428 935 -947 1581 -189
235 -368 445 -379 445 -5 0 -62 -62 -126 -137z m252 -466 c537 -674 869 -1237
924 -1567 25 -151 -13 -368 -95 -539 -43 -88 -132 -227 -141 -219 -2 2 2 35 8
73 25 164 -12 321 -131 551 -119 230 -280 457 -563 796 l-140 167 -92 -107
c-417 -489 -650 -851 -728 -1132 -22 -76 -29 -236 -14 -290 l7 -25 -21 25
c-33 37 -94 148 -124 222 -73 185 -92 405 -49 563 92 337 413 862 907 1482 66
84 123 152 126 152 3 0 60 -68 126 -152z m-13 -1362 c278 -371 417 -633 417
-784 -1 -212 -153 -424 -359 -498 -342 -125 -720 132 -723 490 -1 125 52 254
203 495 58 91 209 303 292 407 l42 54 23 -27 c13 -15 60 -76 105 -137z m27
-1922 l0 -273 -140 0 -140 0 0 273 0 272 140 0 140 0 0 -272z m1190 -748 l0
-175 -1330 0 -1330 0 0 175 0 175 1330 0 1330 0 0 -175z"/>
</g>
</svg>
