<svg xmlns="http://www.w3.org/2000/svg" viewBox="0 0 88.56 100.45"><title>Fichier 1</title><g id="Calque_2" data-name="Calque 2"><g id="Calque_1-2" data-name="Calque 1"><path d="M67.84,48.69c-.19,1.18-.24,2.38-.35,3.58-.32,3.48-.66,7-1,10.46-.12,1.35.3,1.77,1.69,1.77s2.51,0,3.77,0c1.76,0,2-.19,2.24-1.93.63-4.44,1.29-8.88,1.89-13.32a43.15,43.15,0,0,0,.16-12.17,23.63,23.63,0,0,1-.06-7.87,39.71,39.71,0,0,0,.91-9.72s.06-.08.21-.27a27.41,27.41,0,0,1,1.31,2.68,40.91,40.91,0,0,1,1.88,11.83c0,.21-.2.45-.32.66A9.64,9.64,0,0,0,79,36.6a9.21,9.21,0,0,0,1.8,8.12c.75,1,1.57,1,2.34,0a9.28,9.28,0,0,0,2.07-5.45c.07-1.94-.08-3.86-1.89-5.15-.15-.1-.18-.42-.2-.64-.14-1.61-.22-3.23-.4-4.83a29.63,29.63,0,0,0-2-8.45,7.73,7.73,0,0,0-4.12-4.51A1.31,1.31,0,0,1,76,15a8,8,0,0,0-5.42-4.47c-3.17-.82-6.37-.47-9.56-.27-5,.32-9.91.82-14.87.88-6.26.08-12.52-.24-18.75.6-.14,0-.29-.1-.43-.15,0-.13,0-.2,0-.24l.47-.66a14,14,0,0,0,2.66-9.21C30.12.43,29.42-.23,28.61.07a2.62,2.62,0,0,0-1,.84,27.5,27.5,0,0,1-5.84,5.66,1.89,1.89,0,0,1-1.05.26q-3.36,0-6.72,0a2.6,2.6,0,0,1-1.36-.35A26.29,26.29,0,0,1,6.88.81C6.48.28,6-.16,5.3.07s-.92.86-1,1.56a14.27,14.27,0,0,0,2.73,9.19,5,5,0,0,1,.4.84,4.73,4.73,0,0,1-.9.16A11.12,11.12,0,0,0,1,13c-1.13.61-1.35,1.38-.52,2.32a12.81,12.81,0,0,0,2.72,2.43,19.5,19.5,0,0,0,3.23,1.33c.61,2.67,1.08,5.39,1.88,8,.91,3,2.59,5.41,5.92,6.15a1,1,0,0,1,.52.33q2.86,3.27,5.68,6.58a1.67,1.67,0,0,1,.36.89c.28,2.53.58,5.06.77,7.6A80,80,0,0,1,21.6,63c-.11,1,.39,1.5,1.41,1.52,1.23,0,2.46,0,3.69,0a1.38,1.38,0,0,0,1.53-1.3q.63-3.21,1.28-6.42c.28-1.41.58-2.82.87-4.23l.4,0c0,3.44,0,6.88,0,10.32,0,1.15.44,1.58,1.57,1.59q2.2,0,4.41,0c1.16,0,1.53-.32,1.7-1.5.72-5,1.48-9.94,2.09-14.93.2-1.63,1-3.46-.74-4.85,0,0,0-.1,0-.18l.53,0c4.16-.07,8.32-.16,12.48-.2a1.66,1.66,0,0,1,1,.54c1.36,1.34,2.65,2.75,4,4a1.31,1.31,0,0,1,.53,1.19c-.46,4.74-.9,9.47-1.35,14.21-.1,1.14.36,1.69,1.51,1.7,1.44,0,2.88,0,4.31,0s1.64-.27,1.83-1.56L67,47.43A1,1,0,0,1,67.84,48.69Zm14-12.32c1.06.77,1.11,3.52,0,5.36C80.93,40,80.93,37.4,81.87,36.37Zm-75.31-20a4.46,4.46,0,0,1-3.08-1.73l3.25-.38C6.67,15.08,6.62,15.66,6.56,16.36ZM53.45,13.5c4.18-.28,8.35-.65,12.52-.92a33,33,0,0,1,3.38.17c-.69.57-1.2.93-1.62,1.36C65,17,62.06,19.78,59.44,22.8A7.15,7.15,0,0,1,52,25.13a5.62,5.62,0,0,1-4.74-4.76c-.43-2.16-.76-4.34-1.14-6.55C48.56,13.72,51,13.66,53.45,13.5ZM31.06,14.61l.1.38L28,16.61c-.07-.95-.11-1.54-.17-2.33ZM27.25,5.24l.2.11-1.84,3.9L24.13,8ZM7.1,5.39l.22-.14L10.4,8,8.94,9.25Zm3.36,20.14c-.74-2.67-1.09-5.43-1.56-7.86.23-1.63.32-2.92.61-4.16A5,5,0,0,1,14,9.39a29,29,0,0,1,6.52,0c2.87.37,4.49,2.38,4.77,5.57a27,27,0,0,1-1.87,12.3A5.46,5.46,0,0,1,18.08,31C13.52,31.13,11.67,30,10.46,25.53ZM27.9,52.06c-.72,3.27-1.33,6.56-2,9.9H24.52c-.21-6.18-.42-12.32-.62-18.36l5.36,3.22C28.26,48.38,28.29,50.28,27.9,52.06Zm15.34-11.5a4,4,0,0,1-2.59-.77c-1.5-1.13-3.14-2.09-4.57-3.31-2.45-2.08-2.18-3.8.68-5.25a7.87,7.87,0,0,1,5.84-.63A5.43,5.43,0,0,1,44.74,32a7,7,0,0,1,1.35,2c1,2.09,1.94,4.22,3,6.58C47,40.54,45.12,40.5,43.24,40.56ZM64.48,46.2c-.67,5.22-1.35,10.43-2,15.71H59.68c.27-3,.54-5.88.81-8.8l.54-5.8a1.33,1.33,0,0,0-.84-1.44,11.5,11.5,0,0,1-3.73-3.27l5.31-1.15c.87,1.24,1.76,2.47,2.58,3.74A1.63,1.63,0,0,1,64.48,46.2Zm0-5.33a5.54,5.54,0,0,1-.35-1.47c-.16-1-1-1.57-1.82-1.08C60.36,39.51,58.18,39.68,56,40c-1.19.17-2.39.17-3.58.32a.84.84,0,0,1-1-.62c-.83-1.95-1.69-3.89-2.56-5.82-.26-.57-.6-1.11-.88-1.67-3.32-6.45-11.74-4.88-14.89-1.33a4.18,4.18,0,0,0-.55,5.29A12.66,12.66,0,0,0,36.49,40a4.12,4.12,0,0,1,.4.33c-1,.9-1,1.28-.37,2.43a11.23,11.23,0,0,0,1.24,1.87,2,2,0,0,1,.45,1.8c-.35,2.58-.62,5.17-1,7.75s-.75,5.09-1.14,7.7H33.28c0-.28,0-.57,0-.85-.19-4.79-.39-9.58-.57-14.36a1.85,1.85,0,0,0-1.31-1.82,24.86,24.86,0,0,1-7-4.28,19.18,19.18,0,0,1-2.11-2.3c-1.13-1.35-2.23-2.74-3.34-4.11l-.57-.68c.63-.1,1.16-.16,1.67-.26A6.92,6.92,0,0,0,25,29.83a21.91,21.91,0,0,0,2.56-8.07c.15-.91.26-1.83.39-2.79a9,9,0,0,0,5.42-2.76c.62-.68,1.35-1.31,1.13-2.48l1-.06c2.24,0,4.49,0,6.73,0a1.14,1.14,0,0,1,1.35,1,48,48,0,0,1,1,4.82,9.42,9.42,0,0,0,14.28,7.24,12.55,12.55,0,0,0,2.5-2.29c2.51-2.6,5-5.28,7.5-7.85A36.63,36.63,0,0,1,72,13.93a6.77,6.77,0,0,1,2.54,5.39,36.07,36.07,0,0,1-.44,7.05,31.89,31.89,0,0,0-.36,10.71,46.78,46.78,0,0,1-.31,13.42c-.48,3.58-1,7.16-1.56,10.74a7.1,7.1,0,0,1-.16.71H69.16c.08-1.06.15-2.09.24-3.12.34-3.55.67-7.09,1-10.64.17-1.74.13-1.81-1.44-2.62A9.59,9.59,0,0,1,64.47,40.87Z"/><path d="M56.91,92.46a12,12,0,0,0-1.45-.85,4.41,4.41,0,0,0,0-4.39A4.46,4.46,0,0,0,51.58,85a5.9,5.9,0,0,0,.36-3,7.48,7.48,0,0,0-1.43-4,6.4,6.4,0,0,0-4.23-2.35c-.74-.12-.87,0-.62.73a1.62,1.62,0,0,1-1.22,2.19,4.8,4.8,0,0,1-.93.07c-1.92,0-3.85,0-5.78,0a4.42,4.42,0,0,0-4.31,5.13,11.57,11.57,0,0,0,.3,1.23,4.49,4.49,0,0,0-3.93,2.2,4.41,4.41,0,0,0-.05,4.52l-.41.17a4.46,4.46,0,0,0,1.67,8.6q11.6,0,23.2,0a4.45,4.45,0,0,0,2.71-8Z"/><path d="M30.25,69.75l-.3.08a2.79,2.79,0,0,0-1.36,1.22,4.13,4.13,0,0,0-.25,3.67,28.71,28.71,0,0,0,1.28,2.76,5,5,0,0,1,.6,2.76c0,.36-.06.71-.09,1.15a5.2,5.2,0,0,0,.53-.16,3.53,3.53,0,0,0,1.65-1.52,4.4,4.4,0,0,0,.09-4.18c-.34-.73-.76-1.42-1.16-2.12a5.32,5.32,0,0,1-1-3.37A1.78,1.78,0,0,0,30.25,69.75Z"/><path d="M37.79,65.25c-.24.12-.46.2-.65.32a3.8,3.8,0,0,0-1.46,3.88,9.33,9.33,0,0,0,1.17,2.93,5.86,5.86,0,0,1,.86,4.2c-.06.3.06.37.32.27a3.29,3.29,0,0,0,1.49-1.08,4.18,4.18,0,0,0,.6-4.29A20.08,20.08,0,0,0,38.82,69a5.56,5.56,0,0,1-1-3.44A1.19,1.19,0,0,0,37.79,65.25Z"/><path d="M23.62,82.34a10.74,10.74,0,0,0-1.05-.62,3.28,3.28,0,0,0-2.83-4.84A4.36,4.36,0,0,0,20,74.66a5.4,5.4,0,0,0-1-2.89,4.68,4.68,0,0,0-3.08-1.71c-.54-.08-.63,0-.45.53a1.18,1.18,0,0,1-.89,1.6,3.78,3.78,0,0,1-.67,0c-1.4,0-2.81,0-4.21,0A3.23,3.23,0,0,0,6.52,76a7.85,7.85,0,0,0,.22.9,3.25,3.25,0,0,0-2.86,1.6,3.21,3.21,0,0,0,0,3.28l-.3.13a3.25,3.25,0,0,0,1.22,6.26H21.65a3.24,3.24,0,0,0,2-5.81Z"/><path d="M4,65.87a2,2,0,0,0-1,.89,3,3,0,0,0-.19,2.67c.26.69.61,1.34.93,2a3.62,3.62,0,0,1,.44,2c0,.26,0,.52-.07.84.18-.06.29-.08.4-.13a2.49,2.49,0,0,0,1.19-1.1,3.21,3.21,0,0,0,.07-3c-.25-.53-.56-1-.85-1.54A3.91,3.91,0,0,1,4.24,66c0-.06,0-.12,0-.21Z"/><path d="M9.88,71A2.43,2.43,0,0,0,11,70.19a3,3,0,0,0,.44-3.12,14.07,14.07,0,0,0-1-1.8,4,4,0,0,1-.71-2.5,1.93,1.93,0,0,0,0-.24c-.17.09-.33.15-.47.24a2.73,2.73,0,0,0-1.06,2.82A6.7,6.7,0,0,0,9,67.72a4.28,4.28,0,0,1,.62,3.06C9.6,71,9.69,71.05,9.88,71Z"/><path d="M87.29,86.09a9.68,9.68,0,0,0-1.05-.62,3.21,3.21,0,0,0,0-3.19,3.26,3.26,0,0,0-2.8-1.65,4.48,4.48,0,0,0,.27-2.22,5.49,5.49,0,0,0-1.05-2.89,4.66,4.66,0,0,0-3.07-1.71c-.54-.08-.64,0-.46.54a1.17,1.17,0,0,1-.88,1.59,3.82,3.82,0,0,1-.68,0c-1.4,0-2.8,0-4.21,0a3.22,3.22,0,0,0-3.14,3.73c0,.3.14.59.22.9a3.22,3.22,0,0,0-2.85,1.6,3.17,3.17,0,0,0,0,3.28l-.31.13a3.25,3.25,0,0,0,1.22,6.26H85.32a3.24,3.24,0,0,0,2-5.81Z"/><path d="M67.8,78l.39-.12a2.61,2.61,0,0,0,1.2-1.1,3.2,3.2,0,0,0,.06-3c-.25-.53-.55-1-.85-1.54a4,4,0,0,1-.69-2.46.86.86,0,0,0,0-.21l-.22.06a2,2,0,0,0-1,.89,3,3,0,0,0-.18,2.67,19.21,19.21,0,0,0,.93,2,3.71,3.71,0,0,1,.44,2C67.84,77.46,67.82,77.72,67.8,78Z"/><path d="M73.55,74.73a2.31,2.31,0,0,0,1.08-.79,3,3,0,0,0,.44-3.12,15.39,15.39,0,0,0-.94-1.8,4.06,4.06,0,0,1-.72-2.5,1.31,1.31,0,0,0,0-.23,3.59,3.59,0,0,0-.48.23,2.77,2.77,0,0,0-1.06,2.83,6.74,6.74,0,0,0,.85,2.12,4.3,4.3,0,0,1,.63,3.06C73.27,74.75,73.36,74.8,73.55,74.73Z"/></g></g></svg>