<?xml version="1.0" standalone="no"?>
<!DOCTYPE svg PUBLIC "-//W3C//DTD SVG 20010904//EN"
 "http://www.w3.org/TR/2001/REC-SVG-20010904/DTD/svg10.dtd">
<svg version="1.0" xmlns="http://www.w3.org/2000/svg"
 width="512.000000pt" height="512.000000pt" viewBox="0 0 512.000000 512.000000"
 preserveAspectRatio="xMidYMid meet">

<g transform="translate(0.000000,512.000000) scale(0.100000,-0.100000)"
fill="#000000" stroke="none">
<path d="M2323 5110 c-598 -58 -1146 -316 -1571 -740 -397 -397 -640 -882
-729 -1460 -24 -161 -24 -539 0 -700 89 -577 330 -1059 727 -1458 397 -397
882 -640 1460 -729 161 -24 539 -24 700 0 577 89 1059 330 1458 727 397 397
640 882 729 1460 24 161 24 539 0 700 -89 577 -330 1059 -727 1458 -394 395
-885 641 -1450 727 -125 19 -468 27 -597 15z m557 -355 c373 -56 713 -199
1019 -428 123 -92 336 -305 428 -428 300 -401 447 -841 447 -1339 0 -498 -147
-938 -447 -1339 -92 -123 -305 -336 -428 -428 -401 -300 -841 -447 -1339 -447
-498 0 -938 147 -1339 447 -123 92 -336 305 -428 428 -300 401 -447 841 -447
1339 0 277 37 496 124 740 113 317 281 581 525 825 256 256 532 428 868 539
173 58 315 87 542 110 78 8 372 -4 475 -19z"/>
<path d="M2275 3707 c-22 -13 -49 -40 -62 -62 l-23 -40 0 -601 0 -601 23 -43
c16 -30 37 -51 67 -67 43 -23 45 -23 442 -23 443 0 442 0 496 65 36 44 48 97
33 152 -12 43 -61 96 -104 112 -18 7 -139 11 -323 11 l-294 0 0 492 c0 479 -1
493 -21 535 -41 86 -149 118 -234 70z"/>
</g>
</svg>
